<svg width="40" height="40" viewBox="0 0 40 40" fill="none" xmlns="http://www.w3.org/2000/svg">
<path fill-rule="evenodd" clip-rule="evenodd" d="M3.33301 33.3334H18.333V31.7055L20.0385 30H16.6663V26.6667H23.333V26.7055L26.7051 23.3334H26.6663V20H30.0385L31.9788 18.0597L33.333 19.3338L36.6663 22.47V6.66675H3.33301V33.3334ZM33.333 19.3338V16.6667H26.6663V13.3334H33.333V19.3338ZM6.66637 13.3334H13.333V16.6667H6.66637V13.3334ZM16.6663 23.3334V20H23.333V23.3334H16.6663ZM13.333 23.3334V20H6.66637V23.3334H13.333ZM6.66637 26.6667H13.333V30H6.66637V26.6667ZM16.6663 16.6667H23.333V13.3334H16.6663V16.6667ZM31.9788 20.4167L36.2496 24.6875L33.5577 27.3795L29.2868 23.1086L31.9788 20.4167ZM28.1083 24.2871L32.3792 28.558L24.2705 36.6667H19.9996V32.3958L28.1083 24.2871Z" fill="white"/>
</svg>
